# xmcd CD database file
#
# Track frame offsets:
#	225
#	13745
#	25492
#	36217
#	48588
#	60762
#	71053
#	84470
#	93620
#	107721
#	119143
#	131597
#	144539
#	162165
#
# Disc length: 2366 seconds
#
# Revision: 0
# Processed by: cddbd v1.5.2PL0 Copyright (c) Steve Scherf et al.
# Submitted via: ACXtractor (MTCDDB.DLL V2003.12.21)
#
DISCID=c6093b0e
DTITLE=Wayne Horsburgh - Songs of the Islands Vol 2
DYEAR=2014
DGENRE=Country
TTITLE0=On a Coconut Island
TTITLE1=Down Where the Trade Winds Blow
TTITLE2=Moonlight Swim
TTITLE3=Pineapple Princess
TTITLE4=Careless Hands
TTITLE5=Summer Holiday
TTITLE6=Lovely Hula Hands
TTITLE7=One Paddle Two Paddle
TTITLE8=Beyond the Reef
TTITLE9=White Silver Sands
TTITLE10=Tiny Bubbles
TTITLE11=Little Brown Gal
TTITLE12=Hanalei Moon
TTITLE13=Beautiful Kauai
EXTD=ID3G:   2 YEAR: 2014
EXTT0=
EXTT1=
EXTT2=
EXTT3=
EXTT4=
EXTT5=
EXTT6=
EXTT7=
EXTT8=
EXTT9=
EXTT10=
EXTT11=
EXTT12=
EXTT13=
PLAYORDER=
